<svg id="Layer_1" height="512" viewBox="0 0 64 64" width="512" fill="#1D3C94" xmlns="http://www.w3.org/2000/svg"><path d="m50 33.67v-3.34c0-1.42-1.15-2.57-2.57-2.57-.26 0-.5-.16-.57-.4-.28-.89-.64-1.76-1.07-2.58-.12-.22-.07-.5.12-.69 1-1 1-2.63 0-3.63l-2.36-2.36c-1-1-2.63-1-3.64 0-.19.19-.47.24-.69.12-.83-.43-1.7-.79-2.58-1.07-.23-.07-.4-.31-.4-.57 0-1.42-1.15-2.57-2.57-2.57h-3.34c-1.42 0-2.57 1.15-2.57 2.6 0 .25-.15.46-.36.53-.9.28-1.78.64-2.62 1.08-.22.11-.5.06-.69-.12-1-1-2.63-1-3.63 0l-2.36 2.36c-1 1-1 2.63 0 3.64.19.19.24.47.12.69-.43.83-.79 1.7-1.07 2.58-.07.23-.31.4-.57.4-1.42 0-2.57 1.15-2.57 2.57v3.34c0 1.42 1.15 2.57 2.57 2.57.26 0 .5.16.57.4.28.89.64 1.76 1.07 2.58.12.22.07.5-.12.69-1 1-1 2.63 0 3.63l2.36 2.36c1 1 2.63 1 3.64 0 .19-.19.47-.24.69-.12.83.43 1.7.79 2.58 1.07.23.07.4.31.4.57 0 1.42 1.15 2.57 2.57 2.57h3.34c1.42 0 2.57-1.15 2.57-2.57 0-.26.16-.5.4-.57.89-.28 1.76-.64 2.58-1.07.22-.11.5-.06.69.12 1 1 2.63 1 3.63 0l2.36-2.36c1-1 1-2.63 0-3.64-.19-.19-.24-.47-.12-.69.44-.84.8-1.72 1.08-2.62.07-.21.28-.36.56-.36 1.42 0 2.57-1.15 2.57-2.57zm-2 0c0 .31-.26.57-.6.57-1.11 0-2.12.73-2.44 1.77-.24.78-.56 1.55-.94 2.28-.53 1-.34 2.22.48 3.04.22.22.22.58 0 .81l-2.36 2.36c-.22.22-.58.22-.81 0-.81-.81-2.03-1.01-3.04-.48-.72.38-1.48.69-2.25.93-1.08.34-1.8 1.33-1.8 2.48 0 .31-.26.57-.57.57h-3.34c-.31 0-.57-.26-.57-.57 0-1.15-.72-2.15-1.8-2.48-.77-.24-1.53-.56-2.25-.93-.38-.2-.79-.29-1.19-.29-.67 0-1.34.27-1.85.77-.22.22-.58.22-.81 0l-2.36-2.36c-.22-.22-.22-.58 0-.81.81-.81 1.01-2.03.48-3.04-.38-.72-.69-1.48-.93-2.25-.34-1.08-1.33-1.8-2.48-1.8-.31 0-.57-.26-.57-.57v-3.34c0-.31.26-.57.57-.57 1.15 0 2.15-.72 2.48-1.8.24-.77.56-1.53.93-2.25.53-1 .34-2.22-.48-3.04-.22-.22-.22-.58 0-.81l2.36-2.36c.22-.22.58-.22.81 0 .81.81 2.03 1.01 3.04.48.73-.38 1.5-.7 2.28-.94 1.04-.32 1.77-1.32 1.77-2.47 0-.31.26-.57.57-.57h3.34c.31 0 .57.26.57.57 0 1.15.72 2.15 1.8 2.48.77.24 1.53.56 2.25.93 1 .53 2.22.34 3.04-.48.22-.22.58-.22.81 0l2.36 2.36c.22.22.22.58 0 .81-.81.81-1.01 2.03-.48 3.04.38.72.69 1.48.93 2.25.34 1.08 1.33 1.8 2.48 1.8.31 0 .57.26.57.57z"/><path d="m32 21c-6.07 0-11 4.93-11 11s4.93 11 11 11 11-4.93 11-11-4.93-11-11-11zm0 20c-4.96 0-9-4.04-9-9s4.04-9 9-9 9 4.04 9 9-4.04 9-9 9z"/><path d="m36.5 31.13-7-4c-.31-.18-.69-.18-1 0s-.5.51-.5.87v8c0 .36.19.69.5.87.16.09.33.13.5.13s.34-.04.5-.13l7-4c.31-.18.5-.51.5-.87s-.19-.69-.5-.87zm-6.5 3.14v-4.55l3.98 2.28-3.98 2.28z"/><path d="m50.38 7.96c-1.56 1.56-1.56 4.1 0 5.66.78.78 1.8 1.17 2.83 1.17s2.05-.39 2.83-1.17c1.56-1.56 1.56-4.1 0-5.66s-4.1-1.56-5.66 0zm4.24 1.41c.78.78.78 2.05 0 2.83s-2.05.78-2.83 0-.78-2.05 0-2.83c.39-.39.9-.58 1.42-.58s1.02.19 1.41.58z"/><path d="m50.38 50.38c-1.56 1.56-1.56 4.1 0 5.66.78.78 1.8 1.17 2.83 1.17s2.05-.39 2.83-1.17c1.56-1.56 1.56-4.1 0-5.66s-4.1-1.56-5.66 0zm4.24 4.24c-.78.78-2.05.78-2.83 0s-.78-2.05 0-2.83c.39-.39.9-.58 1.42-.58s1.02.2 1.41.58c.78.78.78 2.05 0 2.83z"/><path d="m7.96 50.38c-1.56 1.56-1.56 4.1 0 5.66.78.78 1.8 1.17 2.83 1.17s2.05-.39 2.83-1.17c1.56-1.56 1.56-4.1 0-5.66s-4.1-1.56-5.66 0zm4.24 4.24c-.78.78-2.05.78-2.83 0s-.78-2.05 0-2.83c.39-.39.9-.58 1.41-.58s1.03.2 1.42.58c.78.78.78 2.05 0 2.83z"/><path d="m7.96 7.96c-1.56 1.56-1.56 4.1 0 5.66.78.78 1.8 1.17 2.83 1.17s2.05-.39 2.83-1.17c1.56-1.56 1.56-4.1 0-5.66s-4.1-1.56-5.66 0zm4.24 4.24c-.78.78-2.05.78-2.83 0s-.78-2.05 0-2.83 2.05-.78 2.83 0 .78 2.05 0 2.83z"/><path d="m5.31 20.7.4 1.91 1.96-.41-1.03-4.89c-.06-.31-.27-.57-.56-.7s-.62-.12-.89.02l-4.41 2.35.94 1.76 1.81-.97c-3.81 8.87-3.27 19.08 1.5 27.51l1.74-.98c-4.44-7.85-4.95-17.34-1.46-25.6z"/><path d="m20.7 58.69 1.91-.4-.41-1.96-4.89 1.03c-.31.06-.57.27-.7.56s-.12.62.02.89l2.36 4.41 1.76-.94-.96-1.8c3.9 1.67 8.05 2.51 12.21 2.51 5.29 0 10.57-1.35 15.29-4.02l-.98-1.74c-7.85 4.44-17.34 4.95-25.6 1.46z"/><path d="m41.8 7.66 4.89-1.03c.31-.06.57-.27.7-.56s.12-.62-.02-.89l-2.36-4.41-1.76.94.97 1.81c-8.87-3.8-19.07-3.26-27.5 1.51l.98 1.74c7.85-4.44 17.34-4.95 25.6-1.46l-1.91.4.41 1.96z"/><path d="m62.28 43.25-1.81.97c3.8-8.86 3.26-19.06-1.5-27.5l-1.74.98c4.44 7.85 4.95 17.34 1.46 25.6l-.4-1.91-1.96.41 1.03 4.89c.06.31.27.57.56.7.13.06.28.09.42.09.16 0 .32-.04.47-.12l4.41-2.36-.94-1.76z"/></svg>