<svg id="Layer_5" enable-background="new 0 0 64 64" height="512" fill="#1D3C94" viewBox="0 0 64 64" width="512" xmlns="http://www.w3.org/2000/svg"><g><path d="m7 20h-2c0 2.757 2.243 5 5 5v-2c-1.654 0-3-1.346-3-3z"/><path d="m14.916 11.599 1.832.801c1.434-3.28 4.673-5.4 8.252-5.4 1.252 0 2.463.252 3.6.749l.8-1.833c-1.39-.608-2.871-.916-4.4-.916-4.374 0-8.333 2.59-10.084 6.599z"/><path d="m60.699 43.637c-.306-.078-.563-.3-.694-.617-.126-.299-.104-.641.071-.935.707-1.189.518-2.704-.461-3.683l-2.018-2.018c-.979-.979-2.492-1.167-3.703-.449-.273.164-.618.185-.936.051-.296-.123-.519-.38-.603-.709-.34-1.34-1.544-2.277-2.928-2.277h-2.854c-1.384 0-2.588.937-2.936 2.301-.078.306-.301.563-.616.694-.298.126-.644.104-.937-.071-1.188-.708-2.704-.519-3.683.46l-2.018 2.018c-.979.979-1.168 2.493-.449 3.703.163.274.186.616.051.937-.123.295-.38.518-.708.602-1.34.34-2.277 1.545-2.277 2.929v2.854c0 1.384.937 2.588 2.301 2.936.307.078.563.301.694.617.126.299.104.641-.071.935-.707 1.189-.518 2.704.461 3.683l2.018 2.018c.98.979 2.493 1.168 3.703.449.272-.164.617-.185.936-.051.296.123.519.38.603.709.34 1.34 1.544 2.277 2.928 2.277h2.854c1.384 0 2.588-.937 2.936-2.301.078-.306.301-.563.616-.694.299-.126.643-.104.937.071 1.188.708 2.704.518 3.683-.46l2.018-2.018c.979-.979 1.168-2.493.449-3.703-.163-.274-.186-.616-.052-.936.123-.296.38-.519.709-.603 1.34-.34 2.277-1.545 2.277-2.929v-2.854c0-1.384-.937-2.589-2.301-2.936zm.301 5.79c0 .468-.317.876-.793.997-.912.231-1.675.891-2.046 1.779-.371.882-.302 1.896.196 2.734.239.402.175.915-.156 1.246l-2.018 2.018c-.332.333-.846.395-1.266.144-.817-.486-1.831-.556-2.73-.178-.872.364-1.531 1.127-1.769 2.061-.115.455-.523.772-.991.772h-2.854c-.468 0-.876-.317-.998-.793-.231-.913-.891-1.675-1.78-2.047-.373-.156-.771-.234-1.167-.234-.541 0-1.083.145-1.564.432-.403.239-.915.176-1.247-.156l-2.018-2.018c-.331-.332-.396-.844-.145-1.266.486-.817.556-1.832.179-2.729-.365-.873-1.128-1.532-2.063-1.77-.453-.116-.77-.523-.77-.992v-2.854c0-.468.317-.876.793-.997.913-.232 1.676-.892 2.046-1.779.371-.882.302-1.896-.196-2.734-.239-.402-.175-.915.156-1.246l2.018-2.018c.333-.331.847-.393 1.266-.144.817.487 1.831.555 2.73.178.872-.364 1.531-1.127 1.769-2.061.115-.455.523-.772.991-.772h2.854c.468 0 .876.317.998.793.231.913.891 1.675 1.78 2.047.882.369 1.897.3 2.731-.197.404-.239.917-.174 1.247.156l2.018 2.018c.331.332.396.844.145 1.266-.486.817-.556 1.832-.178 2.729.363.873 1.126 1.533 2.062 1.771.453.114.77.521.77.99z"/><path d="m48 39c-4.963 0-9 4.038-9 9s4.037 9 9 9 9-4.038 9-9-4.037-9-9-9zm0 16c-3.859 0-7-3.14-7-7s3.141-7 7-7 7 3.14 7 7-3.141 7-7 7z"/><path d="m48 43c-2.757 0-5 2.243-5 5s2.243 5 5 5 5-2.243 5-5-2.243-5-5-5zm0 8c-1.654 0-3-1.346-3-3s1.346-3 3-3 3 1.346 3 3-1.346 3-3 3z"/><path d="m25 15h8v2h-8z"/><path d="m25 19h8v2h-8z"/><path d="m25 23h8v2h-8z"/><path d="m25 27h8v2h-8z"/><path d="m17 31h-16v22h16v-6h14v-2h-14zm-2 20h-12v-18h12z"/><path d="m5 35h8v2h-8z"/><path d="m5 39h8v2h-8z"/><path d="m5 43h8v2h-8z"/><path d="m5 47h8v2h-8z"/><path d="m24 55.142c-1.721.447-3 2-3 3.858 0 2.206 1.794 4 4 4s4-1.794 4-4c0-1.858-1.279-3.411-3-3.858v-4.142h5v-2h-7zm3 3.858c0 1.103-.897 2-2 2s-2-.897-2-2 .897-2 2-2 2 .897 2 2z"/><path d="m27 33h10v-4h18c4.411 0 8-3.589 8-8s-3.589-8-8-8c-.548 0-1.095.058-1.636.173-1.626-4.86-6.161-8.173-11.364-8.173-1.925 0-3.818.468-5.527 1.359-2.862-3.417-6.995-5.359-11.473-5.359-6.363 0-12.06 4.087-14.147 10.042-5.313-.507-9.853 3.714-9.853 8.958 0 4.962 4.037 9 9 9h11v4h4v10h6v-2h-4zm-6-6h-11c-3.859 0-7-3.14-7-7 0-4.305 3.964-7.728 8.355-6.866l.901.176.253-.883c1.586-5.55 6.722-9.427 12.491-9.427 4.136 0 7.933 1.914 10.419 5.251l.549.736.78-.483c1.586-.984 3.402-1.504 5.252-1.504 4.624 0 8.616 3.141 9.707 7.638l.261 1.074 1.043-.367c.652-.229 1.321-.345 1.989-.345 3.309 0 6 2.691 6 6s-2.691 6-6 6h-18v-16h-16zm2 4v-18h12v18z"/><path d="m57 21h2c0-2.206-1.794-4-4-4v2c1.103 0 2 .897 2 2z"/><path d="m47.752 15.285 1.916-.57c-1.001-3.365-4.154-5.715-7.668-5.715v2c2.636 0 5.001 1.762 5.752 4.285z"/><path d="m47 23h2v2h-2z"/><path d="m43 23h2v2h-2z"/><path d="m39 23h2v2h-2z"/></g></svg>