<svg id="Layer_1" enable-background="new 0 0 512 512" height="512" fill="#1D3C94" viewBox="0 0 512 512" width="512" xmlns="http://www.w3.org/2000/svg"><path d="m486.145 59.559h-366.038c-14.255 0-25.852 11.598-25.852 25.853v23.196c-.04.007-.08.013-.12.02-3.329.605-5.748 3.505-5.748 6.889v15.961c-6.53 1.907-12.822 4.518-18.805 7.801l-11.28-11.28c-2.394-2.394-6.157-2.731-8.94-.803-11.354 7.872-21.104 17.622-28.978 28.978-1.929 2.782-1.591 6.546.803 8.94l11.281 11.28c-3.284 5.983-5.895 12.275-7.801 18.804h-15.962c-3.384 0-6.283 2.42-6.889 5.75-1.204 6.619-1.813 13.517-1.813 20.5 0 6.964.61 13.852 1.813 20.471.605 3.33 3.505 5.75 6.889 5.75h15.96c1.911 6.55 4.521 12.846 7.801 18.813l-11.284 11.305c-2.392 2.396-2.727 6.162-.793 8.942 7.886 11.344 17.633 21.081 28.973 28.942 2.784 1.931 6.547 1.592 8.94-.803l11.28-11.28c5.983 3.283 12.275 5.894 18.805 7.801v15.962c0 3.384 2.42 6.283 5.749 6.889.04.007.079.013.119.02v19.311c0 14.255 11.597 25.853 25.852 25.853h138.897v15.108h-30.274c-15.974 0-28.97 12.996-28.97 28.97v21.94c0 3.867 3.135 7.002 7.001 7.002h192.728c3.867 0 7.001-3.135 7.001-7.002v-21.94c0-15.974-12.996-28.97-28.97-28.97h-30.303v-15.108h138.926c14.255 0 25.853-11.598 25.853-25.853v-268.16c.001-14.255-11.597-25.852-25.851-25.852zm-413.96 229.32c-2.766-1.738-6.366-1.333-8.676.977l-10.855 10.854c-6.457-5.046-12.252-10.835-17.31-17.292l10.858-10.878c2.309-2.313 2.71-5.916.967-8.682-4.802-7.613-8.255-15.941-10.265-24.75-.726-3.186-3.559-5.445-6.826-5.445h-15.35c-.48-4.001-.723-8.09-.723-12.217 0-4.141.243-8.24.723-12.246h15.35c3.267 0 6.1-2.26 6.826-5.445 2-8.768 5.455-17.098 10.271-24.76 1.738-2.766 1.333-6.366-.978-8.677l-10.854-10.854c5.052-6.464 10.848-12.259 17.311-17.311l10.854 10.854c2.309 2.309 5.91 2.715 8.676.977 7.661-4.814 15.992-8.27 24.76-10.27 3.186-.727 5.445-3.56 5.445-6.826v-15.357c8.088-.987 16.358-.989 24.463 0v15.357c0 3.267 2.259 6.1 5.445 6.826 8.798 2.007 17.138 5.462 24.789 10.27 2.765 1.738 6.367 1.332 8.676-.977l10.85-10.85c6.455 5.057 12.242 10.851 17.287 17.306l-10.854 10.854c-2.315 2.314-2.717 5.925-.968 8.691 4.794 7.586 8.247 15.912 10.261 24.745.727 3.186 3.559 5.445 6.826 5.445h15.356c.495 4.054.745 8.152.745 12.246 0 4.079-.25 8.169-.744 12.217h-15.357c-3.274 0-6.111 2.27-6.831 5.464-1.981 8.799-5.43 17.115-10.251 24.717-1.754 2.767-1.356 6.378.958 8.696l10.857 10.878c-5.051 6.449-10.837 12.236-17.286 17.287l-10.85-10.85c-2.309-2.309-5.91-2.716-8.676-.977-7.65 4.808-15.99 8.263-24.789 10.27-3.186.727-5.445 3.56-5.445 6.826v15.357c-8.107.989-16.373.987-24.463 0v-15.357c0-3.267-2.259-6.1-5.445-6.826-8.766-1.998-17.097-5.453-24.758-10.267zm62.832 45.374.09-.015c3.329-.605 5.749-3.505 5.749-6.889v-15.961c6.547-1.91 12.849-4.521 18.833-7.803l11.281 11.281c2.396 2.396 6.166 2.732 8.947.798 11.326-7.874 21.062-17.609 28.937-28.938 1.933-2.78 1.599-6.546-.793-8.942l-11.275-11.296c3.293-5.969 5.905-12.268 7.805-18.821h15.948c3.384 0 6.283-2.42 6.889-5.75 1.223-6.724 1.842-13.611 1.842-20.471 0-6.879-.62-13.776-1.842-20.5-.605-3.33-3.505-5.75-6.889-5.75h-15.959c-1.912-6.561-4.521-12.854-7.796-18.811l11.273-11.273c2.394-2.395 2.732-6.158.803-8.94-7.863-11.34-17.6-21.088-28.941-28.973-2.782-1.934-6.55-1.6-8.947.798l-11.281 11.281c-5.983-3.281-12.286-5.893-18.833-7.803v-15.96c0-3.384-2.419-6.283-5.748-6.889-.03-.005-.061-.01-.091-.016v-8.289h336.217v238.336h-336.219zm242.504 74.28c8.252 0 14.967 6.714 14.967 14.966v14.938h-178.725v-14.938c0-8.252 6.714-14.966 14.967-14.966h30.274 14.003 60.208 14.003zm-44.306-14.004h-60.208v-15.108h60.208zm164.778-40.961c0 6.533-5.315 11.849-11.849 11.849h-138.926-14.003-60.208-14.003-138.897c-6.534 0-11.849-5.315-11.849-11.849v-17.674c2.124.118 4.251.184 6.378.184 2.126 0 4.254-.067 6.378-.185v9.766c0 3.867 3.135 7.002 7.001 7.002h350.221c3.867 0 7.002-3.135 7.002-7.002v-252.339c0-3.867-3.135-7.002-7.002-7.002h-350.22c-3.867 0-7.001 3.135-7.001 7.002v13.656c-4.248-.234-8.512-.235-12.756-.002v-21.563c0-6.533 5.315-11.849 11.849-11.849h366.038c6.533 0 11.849 5.315 11.849 11.849v268.157zm-316.885-132.122c0-36.669-29.819-66.502-66.473-66.502-36.668 0-66.5 29.833-66.5 66.502 0 36.653 29.832 66.473 66.5 66.473 36.654 0 66.473-29.819 66.473-66.473zm-118.97 0c0-28.947 23.55-52.498 52.498-52.498 28.932 0 52.47 23.551 52.47 52.498 0 28.932-23.538 52.469-52.47 52.469-28.948 0-52.498-23.537-52.498-52.469zm37.398 16.658-9.893 9.91-21.623-21.584c-1.315-1.313-2.054-3.094-2.055-4.952-.001-1.857.737-3.64 2.05-4.954l21.619-21.618 9.902 9.901-16.664 16.664zm30.2-33.354 9.902-9.901 21.59 21.59c2.732 2.733 2.734 7.163.004 9.897l-21.586 21.622-9.91-9.894 16.644-16.671zm.361-14.054-17.424 65.118-13.527-3.619 17.424-65.118zm229.622-74.274h-79.88c-3.867 0-7.001 3.135-7.001 7.002v79.909c0 3.867 3.135 7.002 7.001 7.002h79.88c3.867 0 7.001-3.135 7.001-7.002v-79.909c.001-3.867-3.134-7.002-7.001-7.002zm-7.001 79.909h-65.878v-65.905h65.877v65.905zm7.001 32.343h-79.88c-3.867 0-7.001 3.135-7.001 7.002v79.88c0 3.867 3.135 7.002 7.001 7.002h79.88c3.867 0 7.001-3.135 7.001-7.002v-79.88c.001-3.867-3.134-7.002-7.001-7.002zm-7.001 79.88h-65.878v-65.876h65.877v65.876zm-47.502-124.97-14.579-19.212 11.155-8.465 9.421 12.415 27.303-30.801 10.479 9.289-32.962 37.186c-1.331 1.502-3.24 2.357-5.239 2.357-.089 0-.178-.002-.267-.006-2.095-.078-4.044-1.093-5.311-2.763zm-8.888 105.582 13.55-13.55-13.55-13.55 9.902-9.901 13.55 13.55 13.55-13.55 9.902 9.901-13.55 13.55 13.55 13.55-9.902 9.901-13.55-13.55-13.55 13.55zm85.785-141.62h76.989v14.004h-76.989zm0-31.124h76.989v14.004h-76.989zm0 143.376h76.989v14.004h-76.989zm0-31.124h76.989v14.004h-76.989z"/></svg>